<?xml version="1.0" encoding="UTF-8"?>
<svg width="128px" height="128px" viewBox="0 0 128 128" version="1.1" xmlns="http://www.w3.org/2000/svg" xmlns:xlink="http://www.w3.org/1999/xlink">
    <title>Artboard</title>
    <g id="Artboard" stroke="none" stroke-width="1" fill="none" fill-rule="evenodd">
        <rect id="Rectangle" fill="#D6A234" x="0" y="0" width="128" height="128" rx="24"></rect>
        <path d="M70.5142564,93.824 C72.8504387,88.802355 75.1581311,83.5786898 77.4373333,78.1530043 C79.7165356,72.7273189 81.8817778,67.3593535 83.9330598,62.0491082 C85.9843419,56.7388629 87.8646838,51.6594978 89.5740855,46.811013 C91.2834872,41.9625281 92.7934587,37.6335238 94.104,33.824 L94.104,33.824 L79.9159658,33.824 C78.7763647,37.2872035 77.5370484,41.0245772 76.1980171,45.0361212 C74.8589858,49.0476652 73.4914644,53.0447792 72.095453,57.0274632 C70.6994416,61.0101472 69.3319202,64.819671 67.9928889,68.4560346 C66.6538575,72.0923983 65.4430313,75.2381414 64.3604103,77.8932641 C63.2208091,75.2381414 61.9957379,72.0923983 60.6851966,68.4560346 C59.3746553,64.819671 58.0213789,61.0101472 56.6253675,57.0274632 C55.2293561,53.0447792 53.8618348,49.0476652 52.5228034,45.0361212 C51.4813346,41.9160314 50.5001873,38.9617977 49.5793614,36.1734201 L48.8048547,33.824 L34.104,33.824 C35.3575613,37.6335238 36.8532877,41.9625281 38.5911795,46.811013 C40.3290712,51.6594978 42.2236581,56.7388629 44.2749402,62.0491082 C46.3262222,67.3593535 48.4914644,72.7273189 50.7706667,78.1530043 C53.0498689,83.5786898 55.3575613,88.802355 57.6937436,93.824 L57.6937436,93.824 L70.5142564,93.824 Z" id="V" fill="#FFFFFF" fill-rule="nonzero"></path>
    </g>
</svg>