<svg width="1000" height="1000" viewBox="0 0 1000 1000" fill="none" xmlns="http://www.w3.org/2000/svg">
<path d="M306.436 609.617L241.146 461.566H285.285L332.184 583.563H310.42L357.625 461.566H400.232L335.249 609.617H306.436Z" fill="#0D0D0D"/>
<path d="M469.748 612.683C454.218 612.683 440.424 609.413 428.368 602.874C416.311 596.13 406.707 586.935 399.554 575.287C392.606 563.639 389.133 550.356 389.133 535.438C389.133 520.725 392.504 507.647 399.248 496.203C406.196 484.555 415.596 475.36 427.448 468.616C439.3 461.668 452.481 458.194 466.99 458.194C481.294 458.194 493.862 461.464 504.692 468.003C515.727 474.338 524.31 483.125 530.44 494.364C536.775 505.399 539.943 517.966 539.943 532.067C539.943 534.723 539.738 537.482 539.33 540.343C539.125 542.999 538.614 546.065 537.797 549.538L413.348 549.845V519.806L519.099 519.499L502.853 532.067C502.444 523.28 500.81 515.923 497.949 509.997C495.292 504.071 491.307 499.575 485.994 496.51C480.886 493.24 474.551 491.605 466.99 491.605C459.02 491.605 452.072 493.444 446.146 497.123C440.22 500.597 435.622 505.603 432.352 512.142C429.287 518.477 427.755 526.038 427.755 534.825C427.755 543.817 429.389 551.684 432.659 558.428C436.133 564.967 441.037 570.076 447.372 573.754C453.707 577.228 461.064 578.965 469.442 578.965C477.003 578.965 483.849 577.739 489.979 575.287C496.11 572.63 501.423 568.747 505.918 563.639L529.521 587.241C522.369 595.619 513.582 601.954 503.16 606.246C492.942 610.537 481.805 612.683 469.748 612.683Z" fill="#0D0D0D"/>
<path d="M549.45 609.617V388H589.604V609.617H549.45Z" fill="#0D0D0D"/>
<path d="M679.438 612.683C664.52 612.683 651.033 609.311 638.976 602.567C627.124 595.619 617.622 586.321 610.47 574.674C603.522 562.821 600.048 549.641 600.048 535.132C600.048 520.623 603.522 507.647 610.47 496.203C617.418 484.555 626.92 475.36 638.976 468.616C651.033 461.668 664.418 458.194 679.131 458.194C694.253 458.194 707.74 461.668 719.592 468.616C731.649 475.36 741.151 484.555 748.099 496.203C755.047 507.647 758.521 520.623 758.521 535.132C758.521 549.641 755.047 562.821 748.099 574.674C741.151 586.321 731.649 595.619 719.592 602.567C707.74 609.311 694.355 612.683 679.438 612.683ZM679.131 575.287C686.692 575.287 693.333 573.652 699.055 570.382C704.981 566.908 709.477 562.208 712.542 556.282C715.812 550.152 717.447 543.204 717.447 535.438C717.447 527.673 715.812 520.827 712.542 514.901C709.273 508.975 704.777 504.377 699.055 501.108C693.333 497.634 686.692 495.897 679.131 495.897C671.775 495.897 665.235 497.634 659.514 501.108C653.792 504.377 649.296 508.975 646.026 514.901C642.757 520.827 641.122 527.673 641.122 535.438C641.122 543.204 642.757 550.152 646.026 556.282C649.296 562.208 653.792 566.908 659.514 570.382C665.235 573.652 671.775 575.287 679.131 575.287Z" fill="#0D0D0D"/>
</svg>
