<?xml version="1.0" encoding="UTF-8"?>
<svg width="128px" height="128px" viewBox="0 0 128 128" version="1.1" xmlns="http://www.w3.org/2000/svg" xmlns:xlink="http://www.w3.org/1999/xlink">
    <title>BTC</title>
    <g id="BTC" stroke="none" stroke-width="1" fill="none" fill-rule="evenodd">
        <path d="M93.7815739,45.5528437 C92.7761923,35.0684565 83.7703371,31.5516652 72.4008344,30.5479305 L72.3971419,16.0054602 L63.5894403,16.0043095 L63.5932844,30.16349 C61.2778607,30.1632517 58.9110569,30.2086549 56.5596022,30.2552581 L56.5575663,16.0023333 L47.7545881,16 L47.75474,30.5383139 C45.8478356,30.576998 43.975174,30.612152 42.1491651,30.6129336 L42.1480022,30.5678397 L30,30.5608107 L30.0045249,40.0149015 L33.2430814,39.9684041 C34.8556044,39.9526773 36.4546167,39.9519944 36.4005742,40.0121701 C39.9681681,40.0140933 41.1297793,42.0959068 41.4679399,43.8922051 L41.4511741,83.8921732 C41.2547603,85.0224592 40.5445858,86.6581586 38.167982,86.6617442 C38.2807026,86.762115 31.7654409,86.6585365 31.7654409,86.6585365 L30.0179017,97.2295237 L41.479898,97.2318009 C43.6128968,97.2348469 45.711641,97.2716827 47.7720203,97.2853456 L47.7791895,111.993357 L56.5774443,111.996873 L56.5737558,97.4443161 C58.9895221,97.4950747 61.3273721,97.5149125 63.6097358,97.5133422 L63.6093184,111.998849 L72.41702,112 L72.4163345,97.3181001 C87.223694,96.467715 97.5867273,92.7209824 98.870403,78.7462627 C99.9068185,67.4935157 94.6385891,62.4711494 86.2325503,60.440574 C91.2713134,57.8628187 94.445757,53.3454409 93.8090782,45.8540864 L93.7815739,45.5528437 Z M81.4664559,76.9991681 C81.4739103,87.9905742 62.7473393,86.7359755 56.7781254,86.7402654 L56.7757989,67.2530017 L57.1491022,67.2512223 C63.4233205,67.1928708 81.098876,65.7931725 81.4608095,76.6591803 L81.4664559,76.9991681 Z M77.3636441,49.5043365 C77.36323,59.5042848 61.7455043,58.3336819 56.7734242,58.3329078 L56.7697899,40.6588529 L57.2453127,40.6550071 C62.6090382,40.5761382 77.0581923,39.4115065 77.3588794,49.1950241 L77.3636441,49.5043365 Z" fill="#FFFFFF" fill-rule="nonzero"></path>
    </g>
</svg>